<svg width="150" height="25" viewBox="0 0 150 25" fill="none" xmlns="http://www.w3.org/2000/svg">
<path d="M1.61407 24.6711C1.14989 24.6711 0.75956 24.5238 0.443077 24.229C0.147692 23.9132 0 23.5238 0 23.0606V1.61851C0 1.1343 0.147692 0.744822 0.443077 0.450085C0.75956 0.155349 1.14989 0.00798035 1.61407 0.00798035H7.34242C8.90374 0.00798035 10.2963 0.344822 11.52 1.01851C12.7437 1.67114 13.6932 2.5764 14.3684 3.7343C15.0646 4.89219 15.4127 6.23956 15.4127 7.7764C15.4127 9.20798 15.0646 10.4817 14.3684 11.5975C13.6932 12.7132 12.7437 13.5869 11.52 14.2185C10.2963 14.8501 8.90374 15.1659 7.34242 15.1659H3.22813V23.0606C3.22813 23.5238 3.08044 23.9132 2.78505 24.229C2.48967 24.5238 2.09934 24.6711 1.61407 24.6711ZM14.7481 24.6711C14.4527 24.6711 14.189 24.608 13.9569 24.4817C13.7248 24.3553 13.5244 24.1554 13.3556 23.8817L7.62725 14.6922L10.7604 13.808L16.0141 22.208C16.3727 22.7975 16.4149 23.3554 16.1407 23.8817C15.8875 24.408 15.4233 24.6711 14.7481 24.6711ZM3.22813 12.1659H7.34242C8.31297 12.1659 9.16747 11.9869 9.90593 11.629C10.6655 11.2501 11.2563 10.7238 11.6782 10.0501C12.1002 9.3764 12.3112 8.61851 12.3112 7.7764C12.3112 6.82904 12.1002 5.99746 11.6782 5.28167C11.2563 4.56588 10.6655 4.00798 9.90593 3.60798C9.16747 3.18693 8.31297 2.9764 7.34242 2.9764H3.22813V12.1659Z" fill="black"/>
<path d="M135.568 24.6711C135.104 24.6711 134.714 24.5238 134.397 24.229C134.102 23.9132 133.954 23.5238 133.954 23.0606V1.61851C133.954 1.15535 134.102 0.776401 134.397 0.481664C134.714 0.165875 135.104 0.00798035 135.568 0.00798035H141.898C143.48 0.00798035 144.884 0.355348 146.107 1.05008C147.331 1.74482 148.28 2.70272 148.956 3.92377C149.652 5.14482 150 6.56588 150 8.18693C150 9.72377 149.652 11.0922 148.956 12.2922C148.28 13.4922 147.331 14.429 146.107 15.1027C144.884 15.7764 143.48 16.1132 141.898 16.1132H137.182V23.0606C137.182 23.5238 137.024 23.9132 136.708 24.229C136.412 24.5238 136.033 24.6711 135.568 24.6711ZM137.182 13.1132H141.898C142.869 13.1132 143.723 12.9027 144.462 12.4817C145.221 12.0606 145.812 11.4817 146.234 10.7448C146.677 9.98693 146.898 9.1343 146.898 8.18693C146.898 7.15535 146.687 6.26061 146.265 5.50272C145.844 4.72377 145.253 4.11325 144.493 3.67114C143.734 3.20798 142.869 2.9764 141.898 2.9764H137.182V13.1132Z" fill="black"/>
<path d="M45.4602 24.6711C45.0171 24.6711 44.6373 24.5238 44.3209 24.229C44.0044 23.9132 43.8461 23.5238 43.8461 23.0606V1.61851C43.8461 1.1343 43.9938 0.744822 44.2892 0.450085C44.6057 0.155349 44.996 0.00798035 45.4602 0.00798035H53.0241C54.4589 0.00798035 55.7143 0.292191 56.7903 0.860611C57.8664 1.40798 58.7103 2.1764 59.3222 3.16587C59.9551 4.1343 60.2716 5.26061 60.2716 6.54482C60.2716 7.59746 59.9868 8.54482 59.4171 9.38693C58.8685 10.208 58.109 10.8606 57.1384 11.3448C58.531 11.6817 59.6492 12.3448 60.4932 13.3343C61.3371 14.3238 61.7591 15.6185 61.7591 17.2185C61.7591 18.6711 61.411 19.9553 60.7147 21.0711C60.0395 22.1869 59.0901 23.0711 57.8663 23.7238C56.6637 24.3553 55.2712 24.6711 53.6888 24.6711H45.4602ZM47.0743 21.7027H53.6888C54.6593 21.7027 55.5138 21.5343 56.2523 21.1975C56.9907 20.8396 57.571 20.3343 57.9929 19.6817C58.436 19.029 58.6576 18.208 58.6576 17.2185C58.6576 16.3132 58.436 15.5659 57.9929 14.9764C57.571 14.3659 56.9907 13.9132 56.2523 13.6185C55.5138 13.3027 54.6593 13.1448 53.6888 13.1448H47.0743V21.7027ZM47.0743 10.1448H53.0241C54.2479 10.1448 55.2395 9.85009 55.9991 9.26061C56.7798 8.65009 57.1701 7.74482 57.1701 6.54482C57.1701 5.34482 56.7798 4.45009 55.9991 3.86061C55.2395 3.27114 54.2479 2.9764 53.0241 2.9764H47.0743V10.1448Z" fill="black"/>
<path fill-rule="evenodd" clip-rule="evenodd" d="M33.4104 19.2967C34.3684 17.8139 34.945 15.4532 34.945 12.3566C34.945 9.32936 34.3117 6.9588 33.3102 5.45193C32.4153 4.10545 31.1631 3.31051 29.1758 3.31051C27.1884 3.31051 25.9363 4.10545 25.0414 5.45193C24.04 6.9588 23.4066 9.32936 23.4066 12.3566C23.4066 15.4532 23.9831 17.8139 24.9411 19.2967C25.7653 20.5723 26.9786 21.4026 29.1758 21.4026C31.373 21.4026 32.5863 20.5723 33.4104 19.2967ZM29.1758 24.6921C35.7692 24.6921 38.2417 19.1693 38.2417 12.3566C38.2417 5.54383 35.4395 0.0210266 29.1758 0.0210266C22.9121 0.0210266 20.1099 5.54383 20.1099 12.3566C20.1099 19.1693 22.5824 24.6921 29.1758 24.6921Z" fill="black"/>
<path fill-rule="evenodd" clip-rule="evenodd" d="M79.0698 19.2967C80.0278 17.8139 80.6044 15.4532 80.6044 12.3566C80.6044 9.32936 79.9711 6.9588 78.9696 5.45193C78.0745 4.10545 76.8224 3.31051 74.8352 3.31051C72.8479 3.31051 71.5958 4.10545 70.7008 5.45193C69.6992 6.9588 69.0659 9.32936 69.0659 12.3566C69.0659 15.4532 69.6425 17.8139 70.6005 19.2967C71.4247 20.5723 72.6379 21.4026 74.8352 21.4026C77.0324 21.4026 78.2456 20.5723 79.0698 19.2967ZM74.8352 24.6921C81.4286 24.6921 83.9011 19.1693 83.9011 12.3566C83.9011 5.54383 81.0989 0.0210266 74.8352 0.0210266C68.5714 0.0210266 65.7692 5.54383 65.7692 12.3566C65.7692 19.1693 68.2418 24.6921 74.8352 24.6921Z" fill="black"/>
<path fill-rule="evenodd" clip-rule="evenodd" d="M123.905 19.2967C124.863 17.8139 125.44 15.4532 125.44 12.3566C125.44 9.32936 124.806 6.9588 123.805 5.45193C122.91 4.10545 121.658 3.31051 119.67 3.31051C117.683 3.31051 116.431 4.10545 115.536 5.45193C114.534 6.9588 113.901 9.32936 113.901 12.3566C113.901 15.4532 114.478 17.8139 115.436 19.2967C116.26 20.5723 117.473 21.4026 119.67 21.4026C121.868 21.4026 123.081 20.5723 123.905 19.2967ZM119.67 24.6921C126.264 24.6921 128.736 19.1693 128.736 12.3566C128.736 5.54383 125.934 0.0210266 119.67 0.0210266C113.407 0.0210266 110.604 5.54383 110.604 12.3566C110.604 19.1693 113.077 24.6921 119.67 24.6921Z" fill="black"/>
<path fill-rule="evenodd" clip-rule="evenodd" d="M92.6351 4.97964C92.6351 4.72566 92.7867 4.50069 92.9941 4.35372C93.6076 3.91937 94.0081 3.20497 94.0081 2.39726C94.0081 1.07329 92.9324 0 91.6055 0C90.2786 0 89.2029 1.07329 89.2029 2.39726C89.2029 3.20498 89.6034 3.91941 90.2169 4.35372C90.4243 4.50069 90.5759 4.72569 90.5759 4.97967V9.29918C90.5759 9.57799 90.3959 9.82056 90.1497 9.95214C89.1778 10.4713 88.5165 11.4942 88.5165 12.6712C88.5165 13.8483 89.1778 14.8711 90.1497 15.3904C90.3959 15.5219 90.5759 15.7645 90.5759 16.0433V20.0204C90.5759 20.2743 90.4243 20.4993 90.2169 20.6463C89.6034 21.0806 89.2029 21.795 89.2029 22.6028C89.2029 23.9267 90.2786 25 91.6055 25C92.9324 25 94.0081 23.9267 94.0081 22.6028C94.0081 21.795 93.6076 21.0806 92.9941 20.6463C92.7867 20.4993 92.6351 20.2743 92.6351 20.0204V15.9629C92.6351 15.7322 92.7847 15.5302 92.9911 15.4266C93.1978 15.323 93.447 15.3259 93.6323 15.4639L102.3 21.9233C102.501 22.0729 102.592 22.3234 102.588 22.5734C102.588 22.5832 102.588 22.5929 102.588 22.6028C102.588 23.9267 103.664 25 104.991 25C106.318 25 107.393 23.9267 107.393 22.6028C107.393 21.2788 106.318 20.2055 104.991 20.2055C104.722 20.2055 104.463 20.2496 104.222 20.3309C103.977 20.4135 103.7 20.4022 103.493 20.2478L94.9292 13.8658C94.7054 13.699 94.618 13.4102 94.6599 13.1346C94.6826 12.9835 94.6945 12.8287 94.6945 12.6712C94.6945 12.4987 94.6803 12.3295 94.653 12.1647C94.6075 11.8896 94.6902 11.5996 94.9117 11.4296L103.567 4.78648C103.769 4.63141 104.04 4.61431 104.284 4.68905C104.507 4.7576 104.745 4.79451 104.991 4.79451C106.318 4.79451 107.393 3.72122 107.393 2.39726C107.393 1.07329 106.318 0 104.991 0C103.664 0 102.588 1.07329 102.588 2.39726C102.588 2.42896 102.589 2.46051 102.59 2.49191C102.6 2.74562 102.514 3.00246 102.312 3.15727L93.5749 9.86342C93.4019 9.99612 93.1671 10.0024 92.9713 9.90602C92.7758 9.8097 92.6351 9.61904 92.6351 9.40154V4.97964Z" fill="url(#paint0_radial_1_82)"/>
<path d="M94.6945 12.6713C94.6945 14.3735 93.3115 15.7535 91.6055 15.7535C89.8994 15.7535 88.5165 14.3735 88.5165 12.6713C88.5165 10.969 89.8994 9.58908 91.6055 9.58908C93.3115 9.58908 94.6945 10.969 94.6945 12.6713Z" fill="url(#paint1_radial_1_82)"/>
<path d="M107.393 22.6028C107.393 23.9267 106.318 25 104.991 25C103.664 25 102.588 23.9267 102.588 22.6028C102.588 21.2788 103.664 20.2055 104.991 20.2055C106.318 20.2055 107.393 21.2788 107.393 22.6028Z" fill="url(#paint2_radial_1_82)"/>
<path d="M94.0081 22.6028C94.0081 23.9267 92.9324 25 91.6055 25C90.2786 25 89.2029 23.9267 89.2029 22.6028C89.2029 21.2788 90.2786 20.2055 91.6055 20.2055C92.9324 20.2055 94.0081 21.2788 94.0081 22.6028Z" fill="url(#paint3_radial_1_82)"/>
<path d="M107.393 2.39726C107.393 3.72122 106.318 4.79451 104.991 4.79451C103.664 4.79451 102.588 3.72122 102.588 2.39726C102.588 1.07329 103.664 0 104.991 0C106.318 0 107.393 1.07329 107.393 2.39726Z" fill="url(#paint4_radial_1_82)"/>
<path d="M94.0081 2.39726C94.0081 3.72122 92.9324 4.79451 91.6055 4.79451C90.2786 4.79451 89.2029 3.72122 89.2029 2.39726C89.2029 1.07329 90.2786 0 91.6055 0C92.9324 0 94.0081 1.07329 94.0081 2.39726Z" fill="url(#paint5_radial_1_82)"/>
<defs>
<radialGradient id="paint0_radial_1_82" cx="0" cy="0" r="1" gradientUnits="userSpaceOnUse" gradientTransform="translate(90.4042 11.3014) rotate(37.7719) scale(20.4076 20.026)">
<stop stop-color="#B1EBFE"/>
<stop offset="0.0933733" stop-color="#24CAFF"/>
<stop offset="1" stop-color="#8D47FF"/>
</radialGradient>
<radialGradient id="paint1_radial_1_82" cx="0" cy="0" r="1" gradientUnits="userSpaceOnUse" gradientTransform="translate(90.0244 11.1557) rotate(45.3493) scale(5.13164 5.13179)">
<stop stop-color="#A2D3E2"/>
<stop offset="0.182292" stop-color="#1CC2F5"/>
<stop offset="1" stop-color="#2894F8"/>
</radialGradient>
<radialGradient id="paint2_radial_1_82" cx="0" cy="0" r="1" gradientUnits="userSpaceOnUse" gradientTransform="translate(103.685 21.4303) rotate(44.344) scale(4.1675 4.1673)">
<stop stop-color="#8E86DF"/>
<stop offset="0.208333" stop-color="#6152F3"/>
<stop offset="1" stop-color="#A05CF8"/>
</radialGradient>
<radialGradient id="paint3_radial_1_82" cx="0" cy="0" r="1" gradientUnits="userSpaceOnUse" gradientTransform="translate(90.2915 21.382) rotate(46.9319) scale(4.14789 4.14851)">
<stop stop-color="#93B5E3"/>
<stop offset="0.176926" stop-color="#428FF7"/>
<stop offset="1" stop-color="#3D79EF"/>
</radialGradient>
<radialGradient id="paint4_radial_1_82" cx="0" cy="0" r="1" gradientUnits="userSpaceOnUse" gradientTransform="translate(103.712 1.26481) rotate(43.9661) scale(4.09379 4.09348)">
<stop stop-color="#9797EB"/>
<stop offset="0.192708" stop-color="#585AFA"/>
<stop offset="1" stop-color="#8359FB"/>
</radialGradient>
<radialGradient id="paint5_radial_1_82" cx="0" cy="0" r="1" gradientUnits="userSpaceOnUse" gradientTransform="translate(90.3116 1.02852) rotate(44.634) scale(4.20862 4.20851)">
<stop stop-color="#9ED3FF"/>
<stop offset="0.196764" stop-color="#44A9FF"/>
<stop offset="1" stop-color="#228FE7"/>
</radialGradient>
</defs>
</svg>
